<?xml version="1.0" standalone="no"?>
<!DOCTYPE svg PUBLIC "-//W3C//DTD SVG 20010904//EN"
 "http://www.w3.org/TR/2001/REC-SVG-20010904/DTD/svg10.dtd">
<svg version="1.0" xmlns="http://www.w3.org/2000/svg"
 width="920.000000pt" height="920.000000pt" viewBox="0 0 920.000000 920.000000"
 preserveAspectRatio="xMidYMid meet">

<g transform="translate(0.000000,920.000000) scale(0.100000,-0.100000)"
fill="#000000" stroke="none">
<path d="M4305 7594 c-96 -21 -219 -81 -284 -140 -60 -54 -125 -148 -142 -204
l-11 -37 -107 -6 c-221 -13 -371 -77 -512 -217 -125 -125 -177 -232 -233 -483
-43 -188 -59 -367 -53 -567 5 -170 11 -216 43 -369 l16 -74 65 124 c129 247
266 414 387 473 51 24 68 28 127 24 58 -3 75 -9 111 -35 381 -282 808 -433
1311 -462 223 -13 546 4 750 40 31 5 74 7 95 3 59 -10 171 -68 240 -124 35
-28 66 -50 68 -48 2 2 23 44 48 94 54 109 88 205 120 332 46 183 51 236 50
487 0 203 -3 259 -22 362 -12 68 -28 139 -35 159 l-12 36 -215 78 c-373 134
-586 227 -883 389 -117 63 -267 118 -412 152 -122 28 -408 36 -510 13z"/>
<path d="M3165 2894 c-355 -66 -431 -85 -530 -133 -206 -99 -358 -273 -436
-499 l-34 -97 -3 -602 -3 -602 43 -28 c148 -94 276 -166 440 -248 1379 -688
3020 -602 4321 227 l77 50 0 571 c0 625 -1 637 -59 782 -57 141 -157 273 -274
361 -74 55 -192 116 -268 138 -85 25 -693 136 -700 128 -6 -7 -131 -218 -753
-1277 l-241 -410 -3 539 -2 540 72 94 c40 52 81 104 90 116 17 22 15 24 -145
182 l-162 159 -157 -160 -157 -160 90 -114 89 -113 0 -546 c0 -325 -4 -542 -9
-536 -5 5 -136 225 -292 489 -633 1075 -701 1190 -707 1196 -4 3 -133 -18
-287 -47z"/>
</g>
</svg>
