<?xml version="1.0" standalone="no"?>
<!DOCTYPE svg PUBLIC "-//W3C//DTD SVG 20010904//EN"
 "http://www.w3.org/TR/2001/REC-SVG-20010904/DTD/svg10.dtd">
<svg version="1.0" xmlns="http://www.w3.org/2000/svg"
 width="256.000000pt" height="256.000000pt" viewBox="0 0 256.000000 256.000000"
 preserveAspectRatio="xMidYMid meet">

<g transform="translate(0.000000,256.000000) scale(0.100000,-0.100000)"
fill="#000000" stroke="none">
<path d="M1255 2386 c-113 -27 -222 -92 -316 -188 -31 -32 -60 -58 -63 -58
-11 0 -6 51 8 85 8 19 11 35 6 35 -19 0 -95 -99 -126 -165 -57 -119 -69 -181
-69 -355 0 -154 0 -155 32 -220 17 -36 37 -94 44 -130 l13 -65 8 45 c17 92 31
130 59 161 42 47 44 64 15 119 -39 74 -36 129 10 180 124 137 493 175 723 73
141 -62 190 -146 145 -251 -35 -81 -36 -93 -9 -144 16 -30 27 -73 31 -118 8
-81 16 -80 33 4 6 32 24 79 40 103 56 84 62 183 24 371 -17 83 -17 83 6 126
12 24 33 49 47 56 13 8 23 18 21 24 -10 30 -167 86 -244 86 -24 0 -43 4 -43 9
0 10 119 71 139 71 24 0 9 16 -32 32 -107 44 -255 51 -382 18 -43 -11 -79 -20
-81 -20 -12 0 24 65 52 94 l35 36 -38 -1 c-21 0 -60 -6 -88 -13z"/>
<path d="M1700 1103 c-11 -25 -34 -68 -50 -95 -26 -42 -30 -58 -30 -121 0
-204 -92 -341 -297 -445 l-42 -22 -75 51 c-139 92 -204 197 -213 342 -6 77 -9
86 -48 142 -24 33 -53 81 -66 108 -13 26 -28 47 -35 47 -20 0 -92 -88 -121
-149 -24 -48 -28 -68 -28 -141 0 -47 3 -99 7 -117 6 -28 4 -32 -22 -41 -50
-18 -187 -111 -228 -156 -22 -24 -50 -62 -61 -84 l-21 -40 53 -48 c156 -140
397 -265 580 -299 l37 -7 2 133 c1 74 1 155 0 180 -3 50 13 74 42 63 13 -5 16
-33 18 -197 l3 -192 70 -7 c39 -4 116 -5 173 -1 l102 5 0 188 c0 155 3 190 15
200 12 10 18 10 30 0 12 -10 15 -45 15 -193 l0 -180 40 7 c167 26 395 139 560
277 72 60 73 69 12 158 -35 52 -141 141 -209 175 -38 19 -38 17 -17 76 35 100
-9 263 -101 368 -60 69 -70 70 -95 15z"/>
</g>
</svg>
