<?xml version="1.0" standalone="no"?>
<!DOCTYPE svg PUBLIC "-//W3C//DTD SVG 20010904//EN"
 "http://www.w3.org/TR/2001/REC-SVG-20010904/DTD/svg10.dtd">
<svg version="1.0" xmlns="http://www.w3.org/2000/svg"
 width="840.000000pt" height="474.000000pt" viewBox="0 0 840.000000 474.000000"
 preserveAspectRatio="xMidYMid meet">

<g transform="translate(0.000000,474.000000) scale(0.100000,-0.100000)"
fill="#000000" stroke="none">
<path d="M1165 4329 c-120 -12 -226 -38 -266 -64 -67 -43 -97 -144 -65 -218
44 -107 252 -171 635 -197 91 -6 166 -12 167 -13 0 -1 19 -65 40 -142 32 -117
39 -156 39 -235 0 -82 -3 -100 -23 -132 -12 -20 -30 -39 -40 -44 -9 -4 -258
-8 -552 -9 -365 -2 -548 -6 -577 -14 -55 -15 -93 -60 -93 -111 l0 -38 -37 5
c-56 7 -100 -27 -143 -111 -35 -69 -35 -69 -35 -205 0 -119 3 -142 22 -183 47
-102 102 -147 163 -134 29 5 30 4 30 -32 1 -144 129 -346 267 -420 151 -80
767 -203 1326 -263 64 -7 117 -17 117 -21 0 -5 -7 -23 -16 -40 -18 -34 -15
-34 -149 3 -118 32 -345 33 -465 1 -162 -43 -372 -166 -420 -245 -65 -106 48
-241 164 -197 14 5 49 28 78 50 190 150 460 181 703 79 215 -90 359 -287 394
-542 11 -78 28 -109 74 -137 56 -35 124 -24 171 27 35 37 41 81 27 174 -29
191 -125 390 -253 525 l-39 41 98 55 c234 132 274 138 818 142 456 3 622 13
990 62 735 96 1255 218 2730 637 319 91 641 182 715 202 206 55 291 118 365
269 57 116 70 181 69 341 -1 177 -28 290 -108 450 -123 247 -312 414 -522 461
-68 15 -89 15 -148 5 -309 -52 -449 -409 -307 -777 41 -106 90 -186 176 -285
85 -98 109 -135 99 -150 -9 -16 -160 -8 -474 26 -135 14 -353 37 -485 51 -132
13 -325 33 -430 44 -104 11 -539 56 -965 100 -426 44 -860 89 -965 100 -227
24 -279 24 -365 5 -86 -20 -99 -25 -275 -109 l-150 -71 -111 -3 c-142 -5 -204
10 -356 88 -178 92 -280 128 -395 140 -165 18 -252 58 -345 157 -60 65 -90
126 -128 259 -44 161 -55 148 108 140 349 -17 875 -27 1397 -27 632 -1 613 -3
672 64 34 39 49 97 38 148 -9 41 -68 105 -108 118 -85 27 -1037 114 -1767 161
-758 49 -956 56 -1115 39z m480 -1379 c66 -6 264 -24 440 -41 377 -35 1188
-110 1500 -139 273 -25 281 -26 300 -53 21 -30 19 -51 -8 -83 l-23 -27 -1216
11 c-818 8 -1225 15 -1244 22 -45 17 -91 68 -104 114 -32 116 66 224 190 211
25 -3 99 -9 165 -15z"/>
<path d="M1680 1300 c-444 -68 -626 -610 -311 -930 221 -225 581 -221 793 8
99 107 148 231 148 375 0 147 -49 270 -149 377 -122 130 -309 196 -481 170z"/>
</g>
</svg>
