<?xml version="1.0" standalone="no"?>
<!DOCTYPE svg PUBLIC "-//W3C//DTD SVG 20010904//EN"
 "http://www.w3.org/TR/2001/REC-SVG-20010904/DTD/svg10.dtd">
<svg version="1.0" xmlns="http://www.w3.org/2000/svg"
 width="512.000000pt" height="512.000000pt" viewBox="0 0 512.000000 512.000000"
 preserveAspectRatio="xMidYMid meet">

<g transform="translate(0.000000,512.000000) scale(0.100000,-0.100000)"
fill="#000000" stroke="none">
<path d="M1540 4930 l0 -90 75 0 75 0 0 90 0 90 -75 0 -75 0 0 -90z"/>
<path d="M1480 4415 l0 -275 135 0 135 0 0 275 0 275 -135 0 -135 0 0 -275z"/>
<path d="M2260 4500 l0 -90 75 0 75 0 0 90 0 90 -75 0 -75 0 0 -90z"/>
<path d="M2200 3985 l0 -275 135 0 135 0 0 275 0 275 -135 0 -135 0 0 -275z"/>
<path d="M3790 4159 c-157 -49 -322 -101 -367 -114 l-81 -26 20 -62 c11 -34
24 -66 28 -70 4 -5 94 19 200 53 106 33 197 59 202 58 4 -2 -352 -363 -792
-803 l-800 -800 -194 194 c-170 170 -198 194 -226 194 -28 0 -83 -52 -538
-506 l-507 -507 53 -52 52 -53 470 470 470 470 193 -193 c176 -174 196 -192
227 -192 33 0 88 53 869 833 458 457 831 824 827 813 -3 -10 -34 -97 -67 -193
-35 -98 -58 -178 -53 -182 5 -5 36 -17 70 -28 l61 -21 122 352 c67 193 121
365 121 382 0 32 -21 58 -55 67 -11 3 -142 -33 -305 -84z"/>
<path d="M1540 3900 l0 -90 75 0 75 0 0 90 0 90 -75 0 -75 0 0 -90z"/>
<path d="M920 3830 l0 -90 75 0 75 0 0 90 0 90 -75 0 -75 0 0 -90z"/>
<path d="M860 3315 l0 -275 135 0 135 0 0 275 0 275 -135 0 -135 0 0 -275z"/>
<path d="M2260 3470 l0 -90 75 0 75 0 0 90 0 90 -75 0 -75 0 0 -90z"/>
<path d="M920 2800 l0 -90 75 0 75 0 0 90 0 90 -75 0 -75 0 0 -90z"/>
<path d="M3440 1140 l0 -960 -300 0 -300 0 0 775 0 775 -280 0 -280 0 0 -775
0 -775 -300 0 -300 0 0 640 0 640 -280 0 -280 0 0 -640 0 -640 -164 0 c-94 0
-167 -4 -171 -10 -3 -5 -3 -39 1 -75 l7 -65 1767 0 1768 0 7 65 c3 35 4 69 0
75 -4 6 -69 10 -171 10 l-164 0 0 960 0 960 -280 0 -280 0 0 -960z"/>
</g>
</svg>
