<?xml version="1.0" standalone="no"?>
<!DOCTYPE svg PUBLIC "-//W3C//DTD SVG 20010904//EN"
 "http://www.w3.org/TR/2001/REC-SVG-20010904/DTD/svg10.dtd">
<svg version="1.0" xmlns="http://www.w3.org/2000/svg"
 width="981.000000pt" height="892.000000pt" viewBox="0 0 981.000000 892.000000"
 preserveAspectRatio="xMidYMid meet">

<g transform="translate(0.000000,892.000000) scale(0.100000,-0.100000)"
fill="#000000" stroke="none">
<path d="M4525 8904 c-281 -22 -599 -64 -820 -110 -1335 -278 -2453 -990
-3112 -1979 -106 -159 -156 -248 -252 -445 -166 -345 -264 -673 -317 -1065
-25 -180 -25 -616 -1 -800 86 -643 333 -1224 752 -1760 130 -166 303 -353 465
-501 l147 -134 -248 -1047 c-135 -577 -245 -1049 -244 -1051 2 -2 594 233
1317 521 l1314 525 159 -33 c195 -41 437 -79 650 -102 125 -13 250 -17 570
-18 430 0 551 8 875 56 912 136 1770 487 2445 999 352 267 698 622 928 952
538 772 747 1653 602 2533 -123 739 -479 1410 -1060 1991 -99 99 -225 217
-280 263 -807 668 -1780 1063 -2920 1187 -142 15 -835 28 -970 18z m840 -454
c1060 -93 2031 -477 2760 -1089 125 -105 331 -307 434 -426 445 -514 705
-1086 777 -1711 20 -176 15 -574 -11 -734 -86 -549 -308 -1044 -675 -1505
-131 -165 -416 -450 -587 -586 -650 -519 -1443 -858 -2323 -993 -309 -47 -489
-60 -840 -60 -436 1 -743 33 -1147 120 -143 31 -181 35 -258 32 l-90 -5 -939
-377 c-516 -207 -940 -375 -941 -374 -2 2 66 298 151 658 151 637 155 657 151
743 -4 76 -9 98 -41 162 -31 63 -53 89 -149 176 -425 389 -688 725 -887 1134
-157 325 -246 626 -286 971 -21 176 -15 574 11 734 88 555 310 1050 677 1507
532 661 1336 1173 2253 1434 403 115 727 168 1235 203 97 7 601 -3 725 -14z"/>
<path d="M2510 5555 c-95 -26 -211 -90 -283 -156 -149 -136 -220 -295 -220
-494 0 -187 62 -334 198 -471 140 -141 299 -201 504 -191 244 11 450 144 556
360 100 203 100 401 0 605 -77 154 -209 270 -377 329 -61 22 -94 27 -198 30
-89 2 -141 -2 -180 -12z"/>
<path d="M4738 5555 c-221 -56 -402 -228 -475 -450 -36 -112 -38 -275 -5 -385
36 -115 85 -195 176 -285 132 -131 284 -195 466 -195 182 0 334 64 466 195 91
90 140 170 176 285 33 110 31 273 -5 385 -43 132 -113 233 -222 321 -65 53
-108 77 -197 110 -62 23 -92 27 -198 30 -85 2 -143 -1 -182 -11z"/>
<path d="M6969 5555 c-407 -99 -624 -554 -444 -932 80 -170 200 -279 380 -346
105 -39 254 -48 369 -22 188 41 362 176 444 345 55 113 72 183 72 305 0 122
-17 192 -72 305 -80 163 -250 299 -433 345 -73 18 -239 18 -316 0z"/>
</g>
</svg>
