<?xml version="1.0" standalone="no"?>
<!DOCTYPE svg PUBLIC "-//W3C//DTD SVG 20010904//EN"
 "http://www.w3.org/TR/2001/REC-SVG-20010904/DTD/svg10.dtd">
<svg version="1.0" xmlns="http://www.w3.org/2000/svg"
 width="512.000000pt" height="512.000000pt" viewBox="0 0 512.000000 512.000000"
 preserveAspectRatio="xMidYMid meet">

<g transform="translate(0.000000,512.000000) scale(0.100000,-0.100000)"
fill="#000000" stroke="none">
<path d="M3517 4759 c-10 -6 -49 -75 -86 -154 -55 -115 -74 -145 -93 -149 -12
-3 -86 -15 -163 -26 -156 -23 -185 -38 -185 -94 0 -26 18 -48 121 -146 l122
-116 -29 -166 c-26 -158 -27 -167 -11 -192 34 -51 58 -47 220 37 l148 77 143
-75 c78 -41 154 -75 168 -75 33 0 68 39 68 76 0 17 -11 93 -25 169 l-25 139
120 122 c102 102 120 126 120 152 0 27 -30 71 -49 72 -23 1 -312 48 -315 51
-2 2 -32 60 -66 129 -83 165 -94 180 -133 180 -18 0 -40 -5 -50 -11z m93 -330
c25 -50 50 -95 56 -100 7 -5 56 -17 110 -25 55 -9 103 -19 107 -24 5 -4 -23
-35 -62 -70 -38 -34 -74 -74 -79 -88 -6 -18 -3 -59 7 -124 9 -54 13 -98 9 -98
-5 0 -47 20 -94 45 -46 25 -94 45 -105 45 -12 0 -59 -21 -106 -46 -46 -25 -87
-44 -90 -40 -3 3 1 49 10 102 19 116 17 121 -72 209 -34 33 -61 62 -61 66 0 4
39 13 88 20 48 7 97 16 109 20 16 6 38 39 70 104 26 52 50 95 53 95 3 0 26
-41 50 -91z"/>
<path d="M1785 4203 c-81 -20 -280 -95 -380 -143 -288 -139 -547 -358 -732
-620 -92 -129 -222 -388 -268 -532 -138 -437 -123 -903 44 -1324 248 -624 788
-1070 1461 -1206 102 -20 142 -23 360 -22 227 0 254 2 375 28 630 132 1128
520 1393 1086 25 52 45 107 45 122 0 40 -29 68 -71 68 -29 0 -47 -11 -102 -59
-230 -205 -543 -349 -843 -390 -101 -14 -348 -14 -440 0 -280 42 -534 147
-747 310 -88 67 -258 238 -322 324 -155 209 -259 468 -299 743 -19 136 -7 432
24 562 85 358 257 637 539 877 79 67 88 78 88 109 0 60 -47 86 -125 67z m-271
-265 c-4 -7 -24 -33 -44 -58 -100 -121 -239 -377 -289 -530 -30 -96 -58 -222
-71 -332 -18 -145 -8 -446 20 -573 46 -214 132 -424 246 -598 261 -400 650
-666 1124 -769 93 -20 133 -23 340 -23 183 0 256 4 330 18 134 25 346 99 475
165 60 32 114 59 119 61 19 8 -82 -125 -166 -219 -246 -275 -604 -474 -992
-552 -149 -30 -508 -33 -655 -5 -162 31 -319 84 -476 161 -570 280 -941 815
-1006 1451 -63 625 231 1275 739 1635 71 50 293 179 310 180 2 0 0 -6 -4 -12z"/>
<path d="M2672 3574 c-13 -9 -65 -100 -118 -207 -53 -106 -97 -193 -98 -194 0
-1 -98 -15 -216 -32 -199 -29 -217 -33 -237 -56 -46 -52 -37 -67 137 -235
l161 -155 -38 -221 c-36 -213 -37 -222 -20 -247 9 -15 29 -30 44 -33 29 -8 33
-6 301 136 l122 65 138 -72 c75 -40 165 -87 199 -105 51 -27 66 -31 89 -23 16
6 35 22 43 37 14 24 12 45 -23 244 l-39 218 162 155 c175 169 184 184 139 236
-21 23 -39 27 -238 56 -118 17 -216 31 -216 32 -1 1 -45 88 -98 194 -90 182
-119 223 -156 223 -9 0 -26 -7 -38 -16z m110 -379 c38 -76 77 -141 90 -149 13
-8 88 -24 168 -36 80 -12 147 -24 150 -26 2 -3 -47 -56 -110 -119 -132 -132
-125 -108 -90 -315 12 -72 20 -133 17 -136 -2 -3 -65 27 -139 66 -74 38 -145
70 -158 70 -13 0 -84 -32 -158 -70 -74 -39 -137 -69 -139 -66 -3 3 5 64 17
136 35 207 42 183 -90 315 -63 63 -112 116 -110 119 3 2 70 14 150 26 80 12
155 28 168 36 13 8 52 73 90 149 36 74 69 135 72 135 3 0 36 -61 72 -135z"/>
<path d="M4302 2953 c-7 -3 -39 -58 -71 -122 l-59 -117 -123 -17 c-110 -15
-127 -19 -146 -42 -42 -48 -32 -70 73 -170 l95 -90 -20 -114 c-26 -142 -26
-156 -1 -181 33 -33 74 -25 189 36 l107 56 116 -61 c116 -62 117 -62 152 -47
49 20 52 45 27 188 l-21 121 95 91 c105 100 114 123 73 171 -20 23 -37 27
-147 42 l-123 17 -58 117 c-33 64 -66 119 -75 123 -19 7 -64 7 -83 -1z m77
-302 c32 -63 51 -75 134 -87 26 -3 47 -9 47 -13 0 -4 -16 -23 -36 -42 -49 -46
-63 -81 -53 -132 5 -23 8 -52 9 -65 l0 -22 -60 30 c-33 16 -66 30 -75 30 -9 0
-43 -14 -77 -31 l-60 -31 7 59 c12 90 9 104 -40 153 -25 25 -45 48 -45 52 0 3
24 9 53 13 82 12 94 19 127 85 17 33 32 60 35 60 3 0 18 -26 34 -59z"/>
</g>
</svg>
