<?xml version="1.0" standalone="no"?>
<!DOCTYPE svg PUBLIC "-//W3C//DTD SVG 20010904//EN"
 "http://www.w3.org/TR/2001/REC-SVG-20010904/DTD/svg10.dtd">
<svg version="1.0" xmlns="http://www.w3.org/2000/svg"
 width="512.000000pt" height="512.000000pt" viewBox="0 0 512.000000 512.000000"
 preserveAspectRatio="xMidYMid meet">

<g transform="translate(0.000000,512.000000) scale(0.100000,-0.100000)"
fill="#000000" stroke="none">
<path d="M552 4319 c-114 -22 -242 -124 -293 -233 -45 -96 -50 -174 -47 -651
3 -454 3 -455 50 -484 10 -6 52 -18 92 -26 98 -18 163 -53 219 -115 80 -89
109 -216 68 -305 -44 -96 -151 -181 -298 -235 -125 -47 -114 9 -111 -594 l3
-521 33 -68 c59 -120 172 -209 300 -236 71 -15 3924 -16 4003 -1 154 29 291
157 331 310 15 57 17 124 17 518 1 554 10 523 -146 542 -134 17 -220 76 -275
188 -29 59 -33 76 -33 152 0 71 4 94 26 141 52 109 157 184 276 196 32 3 71
12 86 20 56 28 57 40 57 541 0 288 -4 480 -11 517 -31 169 -173 314 -338 345
-67 12 -3945 12 -4009 -1z m2798 -449 c0 -269 3 -290 52 -324 41 -29 123 -10
145 33 4 9 10 133 13 276 l5 260 480 0 480 0 50 -25 c32 -16 61 -41 80 -68
l30 -44 3 -437 3 -437 -58 -18 c-230 -72 -383 -283 -383 -529 0 -251 159 -461
404 -532 l57 -17 -3 -391 c-4 -437 -5 -446 -74 -507 -67 -58 -92 -60 -599 -58
l-460 3 -5 178 -5 179 -33 29 c-51 45 -116 35 -152 -23 -18 -30 -20 -51 -20
-200 l0 -168 -1352 0 c-889 0 -1368 4 -1398 11 -66 15 -115 53 -145 112 l-25
51 0 422 0 422 83 41 c140 69 245 173 306 301 32 66 36 86 39 173 4 81 1 109
-18 168 -45 140 -146 259 -276 326 -44 22 -94 44 -112 48 l-33 7 3 422 3 423
29 41 c33 48 76 78 132 91 22 5 612 9 1397 10 l1357 1 0 -250z"/>
<path d="M1178 3390 c-33 -25 -52 -73 -44 -106 4 -15 21 -40 38 -56 l30 -28
789 0 c545 0 795 3 812 11 68 31 75 131 13 181 -19 16 -78 18 -817 18 -777 0
-797 0 -821 -20z"/>
<path d="M3413 3335 c-62 -26 -64 -42 -61 -370 l3 -293 24 -26 c43 -46 114
-44 160 5 20 22 21 32 21 324 0 333 0 333 -66 361 -40 17 -41 17 -81 -1z"/>
<path d="M1154 2606 c-51 -51 -43 -114 22 -157 28 -18 55 -19 807 -19 857 0
813 -3 851 60 27 47 17 96 -28 132 -19 16 -78 18 -820 18 l-798 0 -34 -34z"/>
<path d="M3384 2376 l-34 -34 0 -293 c0 -214 4 -301 13 -319 7 -14 29 -33 50
-43 31 -16 42 -17 72 -7 19 6 44 23 55 37 19 24 20 40 20 327 0 270 -2 303
-18 322 -44 55 -109 59 -158 10z"/>
<path d="M1222 1917 c-61 -35 -75 -122 -26 -171 l27 -26 804 0 805 0 29 29
c41 41 41 98 0 143 l-29 33 -794 2 c-624 2 -798 0 -816 -10z"/>
</g>
</svg>
