<?xml version="1.0" standalone="no"?>
<!DOCTYPE svg PUBLIC "-//W3C//DTD SVG 20010904//EN"
 "http://www.w3.org/TR/2001/REC-SVG-20010904/DTD/svg10.dtd">
<svg version="1.0" xmlns="http://www.w3.org/2000/svg"
 width="256.000000pt" height="256.000000pt" viewBox="0 0 256.000000 256.000000"
 preserveAspectRatio="xMidYMid meet">

<g transform="translate(0.000000,256.000000) scale(0.100000,-0.100000)"
fill="#000000" stroke="none">
<path d="M837 2234 c-4 -4 -7 -22 -7 -41 l0 -33 -81 0 c-103 0 -141 -17 -169
-75 -20 -42 -20 -51 -18 -861 3 -785 4 -820 22 -847 40 -59 20 -57 691 -57
671 0 651 -2 691 57 18 27 19 62 22 850 3 908 5 873 -60 913 -26 16 -50 20
-115 20 -81 0 -83 1 -83 24 0 37 -10 56 -30 56 -20 0 -30 -19 -30 -56 0 -24 0
-24 -115 -24 l-115 0 0 41 c0 36 -2 40 -22 37 -19 -2 -24 -10 -26 -40 l-3 -38
-114 0 -114 0 -3 38 c-2 29 -7 37 -23 37 -16 0 -21 -8 -23 -37 l-3 -38 -114 0
-114 0 -3 37 c-3 36 -23 54 -41 37z m-7 -163 c0 -31 -4 -41 -20 -46 -56 -18
-77 -102 -41 -161 56 -92 201 -47 201 61 0 41 -30 90 -60 100 -16 5 -20 15
-20 46 l0 39 115 0 115 0 0 -35 c0 -28 -5 -37 -30 -50 -81 -42 -78 -160 6
-200 74 -35 154 17 154 100 0 46 -26 89 -60 100 -16 5 -20 15 -20 46 l0 39
115 0 115 0 0 -34 c0 -28 -6 -38 -34 -55 -64 -40 -72 -122 -17 -175 59 -57
149 -34 179 45 12 31 11 41 -2 73 -8 20 -29 44 -46 54 -25 14 -30 23 -30 55
l0 37 115 0 115 0 0 -40 c0 -26 -4 -40 -13 -40 -7 0 -26 -14 -43 -31 -23 -24
-29 -39 -29 -74 0 -37 6 -50 33 -77 27 -27 40 -33 77 -33 37 0 50 6 77 33 27
27 33 40 33 77 0 35 -6 50 -29 74 -17 17 -36 31 -43 31 -9 0 -13 14 -13 40 l0
40 79 0 c70 0 83 -3 108 -24 l28 -24 3 -789 c2 -433 0 -803 -3 -822 -4 -18
-17 -44 -30 -57 l-24 -24 -611 0 -611 0 -24 25 -25 24 0 821 0 821 25 24 c22
22 32 25 105 25 l80 0 0 -39z m22 -165 c22 -13 30 -5 38 41 l7 38 13 -27 c27
-56 -20 -111 -75 -86 -31 14 -42 51 -24 86 l13 27 5 -34 c3 -19 14 -39 23 -45z
m270 7 c20 -25 38 -14 38 21 0 42 15 54 30 26 16 -30 9 -60 -21 -82 -52 -39
-109 19 -78 80 l13 27 4 -30 c2 -16 8 -36 14 -42z m278 26 c0 -17 6 -32 15
-36 21 -7 27 0 35 44 l7 38 13 -27 c30 -62 -27 -119 -79 -80 -30 22 -37 52
-21 82 14 27 30 16 30 -21z m292 -33 c22 -13 30 -5 38 41 l7 38 13 -27 c27
-56 -20 -111 -75 -86 -31 14 -42 51 -24 86 l13 27 5 -34 c3 -19 14 -39 23 -45z"/>
<path d="M723 1574 c-3 -8 -1 -20 4 -25 5 -5 225 -8 559 -7 541 3 549 3 549
23 0 20 -8 20 -553 23 -495 2 -553 1 -559 -14z"/>
<path d="M728 1379 c-5 -4 -8 -15 -6 -25 3 -18 23 -19 558 -19 l555 0 3 23 c2
12 0 22 -5 22 -380 4 -1098 3 -1105 -1z"/>
<path d="M723 1164 c-3 -8 -1 -20 4 -25 5 -5 225 -8 559 -7 541 3 549 3 549
23 0 20 -8 20 -553 23 -495 2 -553 1 -559 -14z"/>
<path d="M733 973 c-18 -7 -16 -40 3 -47 20 -8 1068 -8 1088 0 21 8 21 40 0
48 -19 7 -1073 7 -1091 -1z"/>
<path d="M723 754 c-3 -8 -1 -20 4 -25 5 -5 225 -8 559 -7 541 3 549 3 549 23
0 20 -8 20 -553 23 -495 2 -553 1 -559 -14z"/>
<path d="M733 563 c-18 -7 -16 -40 3 -47 20 -8 1068 -8 1088 0 21 8 21 40 0
48 -19 7 -1073 7 -1091 -1z"/>
</g>
</svg>
