<?xml version="1.0" standalone="no"?>
<!DOCTYPE svg PUBLIC "-//W3C//DTD SVG 20010904//EN"
 "http://www.w3.org/TR/2001/REC-SVG-20010904/DTD/svg10.dtd">
<svg version="1.0" xmlns="http://www.w3.org/2000/svg"
 width="1024.000000pt" height="1024.000000pt" viewBox="0 0 1024.000000 1024.000000"
 preserveAspectRatio="xMidYMid meet">

<g transform="translate(0.000000,1024.000000) scale(0.100000,-0.100000)"
fill="#000000" stroke="none">
<path d="M4885 8354 c-296 -53 -544 -182 -755 -394 -195 -195 -318 -416 -381
-690 -29 -121 -36 -383 -15 -510 47 -288 172 -540 370 -748 120 -126 235 -210
391 -287 210 -104 384 -145 620 -145 380 0 700 130 972 393 168 163 285 350
357 567 48 145 66 267 66 435 0 237 -44 421 -150 632 -200 397 -583 677 -1025
748 -113 19 -344 18 -450 -1z m327 -324 c251 -24 476 -129 652 -306 139 -139
230 -301 283 -503 21 -79 25 -121 26 -236 0 -77 -5 -167 -12 -200 -93 -446
-411 -764 -856 -856 -88 -18 -304 -15 -400 5 -417 91 -735 405 -826 818 -15
68 -21 128 -20 223 1 209 44 371 149 549 58 99 226 272 329 340 135 88 313
151 473 166 41 4 80 8 85 9 6 0 58 -4 117 -9z"/>
<path d="M2035 7750 c-212 -45 -390 -139 -548 -289 -454 -433 -464 -1152 -22
-1597 512 -515 1359 -420 1747 196 60 96 106 203 141 330 17 63 21 103 21 260
0 168 -3 194 -27 283 -30 112 -95 256 -158 348 -61 90 -197 228 -282 287 -140
97 -292 160 -446 187 -117 21 -314 18 -426 -5z m418 -340 c286 -73 506 -298
573 -586 20 -86 19 -252 -1 -345 -9 -41 -39 -121 -68 -179 -45 -92 -62 -116
-142 -195 -163 -162 -332 -234 -551 -235 -112 0 -187 13 -285 51 -240 92 -416
294 -480 549 -18 72 -21 103 -16 215 7 169 36 263 122 396 150 232 420 369
693 353 46 -3 116 -13 155 -24z"/>
<path d="M7763 7755 c-213 -39 -409 -142 -576 -304 -169 -165 -280 -369 -323
-598 -25 -132 -15 -365 20 -493 33 -116 98 -256 165 -353 61 -88 202 -227 290
-287 93 -62 236 -127 348 -157 89 -25 114 -27 283 -27 169 0 193 2 285 27 118
32 293 116 386 186 199 151 351 376 417 619 24 88 26 114 26 282 0 169 -2 194
-27 283 -114 424 -464 748 -886 822 -101 18 -309 18 -408 0z m410 -344 c268
-69 487 -291 558 -566 29 -110 29 -280 0 -387 -58 -222 -212 -410 -415 -508
-123 -59 -213 -80 -346 -80 -128 0 -221 21 -335 74 -465 219 -597 813 -269
1210 118 142 300 247 483 276 81 13 234 4 324 -19z"/>
<path d="M4965 5440 c-292 -17 -570 -82 -843 -196 -175 -73 -305 -146 -512
-286 -25 -17 -26 -16 -90 34 -275 215 -579 350 -935 414 -120 21 -403 29 -534
15 -383 -42 -737 -184 -1046 -420 -90 -68 -258 -235 -335 -331 -201 -252 -342
-554 -405 -862 -36 -180 -45 -309 -45 -636 0 -241 3 -299 15 -329 21 -50 42
-72 90 -94 38 -18 94 -19 1128 -19 l1087 0 0 -279 c0 -273 0 -279 23 -312 12
-18 38 -44 56 -56 l34 -23 2461 0 2461 0 34 21 c84 51 91 83 91 398 l0 251
1078 0 c676 0 1090 4 1112 10 41 11 94 61 109 103 18 46 14 626 -5 787 -119
1025 -991 1800 -2024 1800 -452 0 -916 -161 -1259 -438 -36 -29 -68 -48 -75
-44 -6 4 -60 40 -121 80 -337 225 -808 385 -1195 407 -58 3 -132 7 -165 9 -33
2 -118 0 -190 -4z m408 -355 c499 -58 949 -273 1302 -621 351 -346 568 -759
650 -1237 22 -129 35 -352 35 -604 l0 -223 -2246 0 -2246 0 5 333 c6 366 16
461 71 681 228 902 995 1569 1926 1675 123 14 366 12 503 -4z m-2774 -24 c218
-47 424 -134 608 -257 62 -41 113 -77 113 -80 0 -3 -45 -54 -100 -115 -173
-190 -284 -349 -394 -561 -147 -282 -228 -552 -273 -913 l-8 -60 -993 -3 -992
-2 0 217 c0 288 21 441 85 638 188 574 688 1018 1278 1134 151 30 145 29 372
26 165 -2 230 -7 304 -24z m5714 -10 c712 -155 1241 -719 1342 -1434 9 -64 15
-184 15 -324 l0 -223 -989 0 -988 0 -7 73 c-21 207 -110 534 -209 762 -111
258 -301 545 -482 731 l-81 82 86 61 c170 121 421 228 637 271 146 29 142 28
368 25 168 -2 230 -7 308 -24z"/>
</g>
</svg>
