<?xml version="1.0" standalone="no"?>
<!DOCTYPE svg PUBLIC "-//W3C//DTD SVG 20010904//EN"
 "http://www.w3.org/TR/2001/REC-SVG-20010904/DTD/svg10.dtd">
<svg version="1.0" xmlns="http://www.w3.org/2000/svg"
 width="360.000000pt" height="360.000000pt" viewBox="0 0 360.000000 360.000000"
 preserveAspectRatio="xMidYMid meet">

<g transform="translate(0.000000,360.000000) scale(0.100000,-0.100000)"
fill="#000000" stroke="none">
<path d="M1590 3585 c-762 -93 -1377 -649 -1544 -1396 -124 -555 22 -1128 399
-1570 196 -229 494 -427 788 -524 454 -148 925 -117 1353 90 491 238 848 690
968 1226 124 555 -22 1128 -399 1570 -375 439 -985 675 -1565 604z m286 -540
c80 -83 123 -277 144 -640 7 -120 16 -194 23 -201 22 -20 254 -164 264 -164 6
0 14 11 17 25 6 24 10 25 81 25 73 0 76 -1 86 -27 6 -15 9 -55 8 -88 l-3 -59
65 -43 c35 -23 67 -42 71 -43 4 0 8 10 10 23 3 20 9 22 75 25 66 3 73 1 84
-20 7 -13 13 -51 13 -85 l1 -61 68 -42 67 -42 0 -149 c0 -113 -3 -149 -12
-149 -7 0 -218 58 -468 130 -250 71 -456 128 -457 127 -1 -2 -9 -77 -18 -167
-8 -91 -17 -190 -20 -220 l-6 -55 185 -140 185 -140 1 -87 c0 -49 -1 -88 -3
-88 -1 0 -94 32 -206 70 -111 39 -206 70 -210 70 -3 0 -15 -31 -24 -69 -21
-80 -55 -150 -79 -165 -39 -23 -83 40 -115 165 -9 38 -21 69 -24 69 -4 0 -99
-32 -210 -70 -111 -39 -203 -70 -205 -70 -2 0 -4 39 -4 88 l1 87 185 140 185
140 -5 55 c-3 30 -13 129 -21 220 -9 90 -17 165 -18 167 -1 1 -207 -56 -457
-128 -250 -71 -461 -129 -467 -129 -10 0 -13 36 -13 149 l0 149 68 42 67 42 1
61 c0 34 6 72 13 85 11 21 18 23 84 20 66 -3 72 -5 75 -25 2 -13 6 -23 10 -23
4 1 36 20 71 43 l65 43 -3 59 c-1 33 2 73 8 88 10 26 13 27 85 27 l75 0 8 -30
8 -31 135 86 c74 47 137 89 141 93 4 4 12 93 19 197 22 383 68 577 156 654 51
46 87 42 140 -14z m740 -304 c2 -2 12 3 21 11 34 29 46 33 34 10 -6 -12 -16
-24 -21 -27 -22 -14 -7 -23 53 -30 46 -5 57 -9 42 -15 -11 -5 -32 -9 -47 -9
-53 -2 -60 -10 -37 -42 23 -33 12 -39 -16 -9 -10 11 -21 20 -25 20 -4 0 -11
-28 -15 -62 -5 -47 -9 -58 -15 -43 -5 11 -9 34 -9 50 -1 36 -15 62 -25 46 -4
-6 -16 -16 -28 -22 -22 -12 -19 0 10 33 16 19 19 17 -73 34 l-40 8 58 10 c58
9 70 23 42 46 -28 23 -15 32 15 10 l29 -21 5 23 c3 13 8 41 12 63 l8 40 9 -60
c5 -33 11 -62 13 -64z m-2001 -359 c2 -2 15 4 29 13 28 18 36 6 11 -15 -25
-21 -17 -28 40 -35 66 -9 64 -20 -5 -29 -52 -7 -60 -15 -35 -36 24 -20 17 -33
-7 -16 -12 9 -26 16 -30 16 -3 0 -10 -25 -14 -56 -7 -58 -23 -58 -24 1 -1 50
-13 60 -46 39 l-29 -19 23 32 22 32 -47 6 c-78 10 -82 18 -15 28 l62 9 -21 29
c-23 32 -16 38 13 12 17 -15 20 -15 28 -3 6 8 10 27 10 42 0 59 14 64 23 8 5
-30 10 -56 12 -58z m2176 -1517 c1 -41 13 -72 23 -57 4 7 17 17 28 23 l21 11
-21 -30 -22 -30 31 -6 c18 -3 42 -6 55 -6 13 0 24 -4 24 -10 0 -5 -11 -10 -24
-10 -13 0 -37 -3 -55 -6 l-31 -6 23 -32 22 -31 -29 19 c-33 21 -45 11 -46 -39
-1 -59 -17 -59 -24 -1 -4 31 -11 56 -14 56 -4 0 -19 -8 -32 -17 l-25 -17 18
26 c9 15 17 30 17 32 0 3 -22 8 -50 12 -62 8 -64 20 -5 27 56 6 63 12 42 35
-24 26 -21 36 5 18 12 -9 26 -16 30 -16 3 0 10 25 14 56 7 58 23 58 25 -1z"/>
<path d="M1743 2710 c-43 -19 -83 -69 -83 -102 0 -23 1 -22 45 3 61 36 127 30
229 -19 12 -6 -2 48 -20 76 -16 24 -86 62 -114 62 -8 0 -34 -9 -57 -20z"/>
</g>
</svg>
