<?xml version="1.0" standalone="no"?>
<!DOCTYPE svg PUBLIC "-//W3C//DTD SVG 20010904//EN"
 "http://www.w3.org/TR/2001/REC-SVG-20010904/DTD/svg10.dtd">
<svg version="1.0" xmlns="http://www.w3.org/2000/svg"
 width="225.000000pt" height="225.000000pt" viewBox="0 0 225.000000 225.000000"
 preserveAspectRatio="xMidYMid meet">

<g transform="translate(0.000000,225.000000) scale(0.100000,-0.100000)"
fill="#000000" stroke="none">
<path d="M1830 1843 c-50 -8 -100 -28 -342 -135 l-247 -109 -267 80 c-226 69
-277 81 -338 81 -85 0 -169 -33 -188 -75 -18 -40 12 -69 170 -167 207 -127
193 -112 135 -138 -65 -30 -273 -120 -300 -130 -18 -8 -42 5 -139 75 -147 106
-195 118 -260 62 -18 -16 -27 -34 -27 -53 0 -28 93 -255 154 -375 38 -76 78
-101 173 -107 137 -8 329 41 596 154 89 37 126 48 128 39 2 -7 -8 -71 -22
-142 -71 -373 -81 -443 -65 -471 21 -38 55 -38 130 0 50 26 72 46 102 88 20
30 111 215 201 410 l163 355 215 110 c322 165 404 219 422 281 16 52 -93 141
-200 163 -56 11 -143 13 -194 4z m245 -113 c26 -14 50 -31 52 -37 7 -20 -127
-101 -372 -223 l-229 -116 -179 -384 c-135 -292 -187 -394 -215 -422 -41 -43
-65 -50 -57 -15 2 12 30 159 61 327 30 168 58 315 61 327 4 20 -11 15 -164
-51 -329 -143 -500 -197 -638 -199 -44 0 -89 4 -101 11 -19 10 -154 295 -170
358 -11 42 33 29 125 -40 118 -87 151 -106 188 -106 20 0 270 106 675 286 354
158 663 293 688 300 26 7 83 12 135 11 75 -2 99 -6 140 -27z m-1172 -118 c110
-34 201 -63 204 -66 5 -4 -84 -48 -169 -83 l-38 -15 -127 78 c-203 124 -220
136 -197 146 38 16 133 -1 327 -60z"/>
</g>
</svg>
