<?xml version="1.0" standalone="no"?>
<!DOCTYPE svg PUBLIC "-//W3C//DTD SVG 20010904//EN"
 "http://www.w3.org/TR/2001/REC-SVG-20010904/DTD/svg10.dtd">
<svg version="1.0" xmlns="http://www.w3.org/2000/svg"
 width="512.000000pt" height="512.000000pt" viewBox="0 0 512.000000 512.000000"
 preserveAspectRatio="xMidYMid meet">

<g transform="translate(0.000000,512.000000) scale(0.100000,-0.100000)"
fill="#000000" stroke="none">
<path d="M687 4490 c-90 -23 -170 -89 -206 -170 -10 -25 -54 -163 -96 -307
-91 -306 -91 -302 3 -349 45 -23 62 -38 80 -74 27 -55 28 -92 1 -146 -32 -67
-77 -89 -171 -87 -60 2 -81 -1 -97 -15 -33 -26 -173 -505 -174 -593 -1 -79 33
-159 91 -211 l37 -33 -3 -300 c-2 -165 0 -310 3 -322 7 -31 44 -53 96 -59 55
-6 113 -44 135 -86 55 -105 -23 -238 -139 -238 -24 0 -46 -9 -67 -26 l-31 -27
3 -301 c3 -288 4 -303 25 -342 33 -61 70 -101 120 -131 42 -24 58 -27 202 -34
86 -4 1079 -9 2206 -10 l2050 -4 50 27 c60 31 104 77 136 138 l24 45 5 855 5
855 59 190 c51 161 60 201 60 265 0 61 -5 84 -26 126 -25 48 -84 111 -126 133
-11 6 -687 209 -1503 451 -816 243 -1740 517 -2054 611 -313 93 -590 171 -615
173 -25 3 -62 1 -83 -4z m756 -364 c359 -107 1012 -301 1452 -432 440 -130
801 -237 802 -238 1 -1 -7 -32 -17 -69 -20 -73 -19 -89 13 -124 25 -28 76 -30
106 -6 12 10 31 48 44 84 l22 66 490 -147 c270 -80 500 -152 513 -159 29 -16
62 -69 62 -100 0 -14 -54 -207 -121 -430 -66 -223 -165 -556 -220 -739 -55
-184 -107 -345 -117 -357 -21 -29 -56 -45 -102 -46 -32 -1 -985 275 -1002 290
-4 4 -1 28 7 55 23 75 20 111 -11 135 -36 28 -85 27 -111 -1 -11 -13 -28 -48
-38 -78 -10 -30 -19 -56 -20 -58 -3 -4 -19 1 -430 123 -154 46 -775 231 -1380
410 -605 180 -1112 334 -1127 341 -38 20 -60 57 -61 102 0 20 25 126 58 234
l58 197 51 6 c117 15 207 79 258 183 30 60 33 76 33 152 0 74 -4 92 -29 140
-15 30 -50 76 -77 101 l-48 46 68 229 c61 200 73 232 100 256 25 22 41 28 77
28 30 0 265 -65 697 -194z m-314 -1921 c416 -124 765 -229 776 -235 13 -6 -80
-9 -280 -8 -331 2 -336 1 -356 -59 -13 -39 10 -90 44 -98 12 -3 290 -7 617 -9
l595 -4 480 -144 480 -145 0 -184 c0 -201 4 -218 55 -239 36 -15 84 0 102 33
6 12 11 85 12 173 0 84 4 155 7 158 3 3 147 -36 320 -88 173 -51 333 -97 356
-100 55 -10 152 15 207 54 74 50 96 96 176 369 l75 252 3 -521 c2 -576 4 -561
-61 -600 -31 -19 -54 -20 -559 -20 l-528 0 0 73 c-1 43 -6 79 -14 89 -21 28
-61 39 -97 26 -39 -13 -59 -58 -59 -131 l0 -54 -1482 4 c-816 2 -1508 5 -1539
7 -31 2 -69 12 -83 21 -52 34 -56 55 -56 293 l0 219 38 11 c85 27 178 125 204
216 6 23 11 71 12 107 1 122 -79 240 -200 296 l-54 24 0 226 0 225 26 -6 c14
-4 367 -108 783 -231z"/>
<path d="M1534 3860 c-29 -12 -54 -49 -54 -80 0 -38 25 -66 72 -84 106 -39
1768 -526 1794 -526 37 1 61 19 74 57 15 41 -2 80 -42 98 -26 12 -1815 547
-1821 544 -1 0 -12 -4 -23 -9z"/>
<path d="M1391 3464 c-28 -36 -27 -85 2 -111 15 -15 209 -77 632 -203 336
-100 737 -219 892 -266 281 -83 328 -93 363 -74 29 16 42 66 26 105 -12 28
-23 36 -78 53 -249 82 -1753 522 -1781 522 -26 0 -41 -7 -56 -26z"/>
<path d="M675 3299 c-31 -18 -45 -40 -45 -75 0 -62 15 -69 315 -159 1373 -409
2147 -635 2174 -635 45 0 67 14 80 50 12 35 3 66 -25 92 -16 14 -2365 716
-2449 732 -16 3 -39 1 -50 -5z"/>
<path d="M3625 3148 c-20 -18 -38 -65 -85 -225 -33 -111 -60 -216 -60 -233 0
-81 116 -106 153 -33 22 42 127 403 127 436 0 38 -40 77 -79 77 -17 0 -41 -10
-56 -22z"/>
<path d="M4258 2934 c-30 -16 -58 -61 -58 -94 0 -56 47 -99 108 -100 36 0 49
5 73 31 50 53 35 130 -31 164 -36 19 -57 18 -92 -1z"/>
<path d="M570 2927 c-53 -27 -64 -94 -20 -135 12 -11 464 -150 1192 -367 645
-192 1196 -355 1225 -362 46 -12 56 -12 82 2 50 25 56 103 11 136 -20 15
-2430 739 -2457 739 -4 0 -19 -6 -33 -13z"/>
<path d="M3445 2538 c-20 -18 -38 -63 -85 -222 -33 -110 -60 -214 -60 -232 0
-65 93 -99 138 -51 22 24 142 399 142 445 0 31 -52 82 -84 82 -14 0 -37 -10
-51 -22z"/>
<path d="M4094 2446 c-27 -27 -34 -42 -34 -74 0 -104 141 -141 193 -52 22 37
21 68 -3 108 -37 61 -105 69 -156 18z"/>
<path d="M3975 1998 c-36 -19 -55 -52 -55 -95 0 -33 6 -48 31 -72 54 -55 138
-35 169 38 34 83 -66 173 -145 129z"/>
<path d="M632 1547 c-23 -25 -29 -75 -12 -107 5 -10 24 -23 41 -29 46 -16
2523 -16 2569 0 59 21 72 100 22 139 -24 20 -45 20 -1312 20 l-1287 0 -21 -23z"/>
<path d="M647 1179 c-52 -30 -50 -117 4 -144 42 -22 2546 -22 2588 0 49 25 57
90 16 130 l-24 25 -1283 0 c-893 -1 -1289 -4 -1301 -11z"/>
</g>
</svg>
