<?xml version="1.0" standalone="no"?>
<!DOCTYPE svg PUBLIC "-//W3C//DTD SVG 20010904//EN"
 "http://www.w3.org/TR/2001/REC-SVG-20010904/DTD/svg10.dtd">
<svg version="1.0" xmlns="http://www.w3.org/2000/svg"
 width="900.000000pt" height="600.000000pt" viewBox="0 0 900.000000 600.000000"
 preserveAspectRatio="xMidYMid meet">

<g transform="translate(0.000000,600.000000) scale(0.100000,-0.100000)"
fill="#000000" stroke="none">
<path d="M1318 5440 c-20 -11 -39 -29 -43 -40 -3 -11 -10 -20 -15 -20 -13 0
-40 -66 -40 -99 0 -40 -32 -132 -60 -171 -29 -41 -102 -76 -175 -85 -119 -14
-162 -48 -189 -150 -14 -54 -14 -3471 0 -3535 22 -97 83 -150 175 -150 59 0
157 -47 190 -91 31 -41 48 -88 59 -167 10 -74 57 -141 115 -165 37 -16 258
-17 3127 -17 3465 0 3136 -8 3202 77 24 31 37 59 41 92 9 74 36 147 68 187 37
45 118 84 173 84 83 0 132 28 168 95 l21 40 0 1780 0 1780 -25 44 c-35 62 -65
80 -156 95 -164 26 -226 93 -249 268 -7 57 -69 141 -117 157 -22 8 -911 11
-3132 11 -3051 -1 -3102 -1 -3138 -20z m3845 -339 c8 -8 14 -62 17 -159 5
-135 7 -150 29 -178 36 -49 77 -74 131 -81 41 -5 56 -1 93 20 68 40 80 75 87
244 4 95 10 147 18 155 10 10 195 13 895 13 485 0 898 -1 917 -3 33 -3 37 -8
77 -90 26 -56 57 -102 84 -129 102 -97 165 -144 221 -164 l58 -22 0 -1599 0
-1599 -37 -15 c-60 -23 -95 -44 -133 -79 -19 -17 -50 -42 -68 -54 -44 -30
-111 -122 -135 -185 -10 -28 -23 -57 -29 -63 -15 -19 -1843 -19 -1855 0 -4 6
-10 75 -13 152 -7 158 -19 199 -70 235 -74 52 -195 28 -243 -49 -19 -32 -23
-54 -27 -184 -4 -117 -8 -150 -20 -157 -9 -6 -693 -9 -1815 -7 l-1800 2 -45
88 c-47 92 -71 121 -166 202 -76 65 -102 81 -151 94 -34 9 -42 16 -47 42 -8
42 -6 3128 3 3158 5 17 18 27 50 37 24 7 55 23 70 36 14 14 37 31 51 40 87 54
171 158 210 263 13 34 21 41 50 46 19 4 833 6 1808 5 1383 -2 1775 -5 1785
-15z"/>
<path d="M1582 5058 c-6 -8 -25 -40 -42 -72 -66 -127 -153 -211 -287 -281
l-73 -38 0 -1562 0 -1562 25 -11 25 -12 2 1547 3 1546 85 44 c123 63 211 155
280 291 17 34 37 63 43 63 7 1 793 2 1747 3 l1735 1 0 25 0 25 -1766 3 c-1452
2 -1768 1 -1777 -10z"/>
<path d="M5583 5063 c-10 -3 -13 -40 -13 -134 0 -108 -3 -136 -19 -167 -42
-83 -112 -126 -206 -127 -42 0 -70 6 -90 18 -26 15 -25 13 7 -16 81 -73 198
-75 283 -4 60 49 75 98 75 247 0 93 3 129 13 132 6 2 350 3 762 2 413 -1 801
1 863 4 l112 7 -15 22 -16 22 -872 -1 c-480 0 -878 -3 -884 -5z"/>
<path d="M7573 4757 c48 -44 167 -120 175 -112 9 9 -13 27 -67 55 -32 15 -80
45 -107 65 l-49 36 48 -44z"/>
<path d="M2653 4579 c-46 -13 -100 -71 -113 -120 -21 -76 6 -133 125 -260 38
-41 92 -105 118 -141 26 -36 78 -100 115 -141 37 -42 85 -99 107 -128 22 -29
67 -82 100 -118 34 -36 69 -79 79 -94 9 -16 53 -69 97 -118 80 -92 100 -129
82 -158 -9 -14 -65 -16 -505 -19 l-494 -2 -21 22 c-23 26 -122 175 -174 261
-18 32 -53 81 -77 110 -24 29 -57 77 -73 108 -45 84 -78 117 -135 138 -47 17
-53 17 -90 2 -66 -27 -102 -54 -118 -89 -31 -65 -15 -138 49 -214 48 -58 165
-247 171 -277 5 -22 0 -32 -21 -50 -15 -11 -42 -21 -59 -21 -48 -1 -115 -46
-141 -96 -20 -39 -19 -103 3 -139 24 -39 87 -81 134 -89 54 -10 93 -45 85 -78
-7 -25 -154 -257 -187 -293 -37 -41 -52 -86 -48 -137 7 -63 31 -96 99 -131 46
-23 62 -27 99 -21 55 8 121 71 169 160 17 33 48 78 69 100 20 23 59 79 86 125
66 112 123 198 154 232 l26 27 497 0 c444 0 498 -2 503 -16 14 -35 2 -57 -77
-151 -45 -54 -93 -114 -107 -133 -13 -19 -57 -70 -96 -113 -40 -43 -85 -97
-100 -120 -16 -23 -58 -74 -94 -112 -36 -39 -90 -104 -120 -144 -30 -40 -79
-99 -109 -130 -110 -115 -142 -183 -121 -256 29 -104 143 -154 239 -106 40 21
96 78 135 138 13 21 50 66 82 100 33 35 75 84 94 109 19 25 71 88 115 140 44
51 109 128 145 170 36 42 76 94 90 114 14 21 44 57 68 80 24 24 73 82 109 129
37 47 98 120 136 162 38 43 77 91 88 108 l19 31 302 0 c357 0 394 7 450 84 68
95 12 229 -108 256 -21 5 -175 10 -341 10 l-302 0 -35 53 c-19 29 -53 70 -76
92 -22 22 -72 81 -110 130 -38 50 -90 112 -117 139 -26 27 -59 66 -73 86 -23
34 -51 67 -240 289 -41 48 -91 110 -110 136 -19 26 -49 62 -67 79 -17 17 -44
48 -60 68 -136 177 -144 185 -196 211 -56 29 -73 31 -124 16z"/>
<path d="M6150 4562 c-36 -18 -61 -39 -75 -62 -20 -35 -20 -44 -20 -1395 0
-1543 -8 -1403 85 -1450 112 -57 223 -6 249 114 15 71 15 2601 0 2671 -13 63
-47 104 -106 130 -58 25 -67 25 -133 -8z"/>
<path d="M6437 4473 c13 -44 5 -2698 -8 -2745 -6 -25 -27 -56 -54 -82 -68 -67
-159 -84 -245 -46 l-45 20 40 -34 c51 -44 127 -69 184 -60 63 10 130 60 160
117 l24 49 -2 1360 c-1 1329 -2 1361 -21 1398 -25 49 -44 62 -33 23z"/>
<path d="M5305 4139 c-16 -6 -51 -32 -77 -57 l-48 -46 0 -272 0 -272 27 -33
c79 -94 151 -112 224 -56 87 66 84 53 84 361 l0 273 -28 36 c-16 21 -39 44
-52 53 -31 20 -92 26 -130 13z"/>
<path d="M7035 4135 c-49 -18 -90 -62 -104 -112 -16 -58 -15 -1782 1 -1836 25
-84 124 -141 199 -115 66 22 118 66 129 108 7 26 10 335 8 947 -3 1024 4 938
-82 988 -56 33 -100 39 -151 20z"/>
<path d="M5560 4054 c6 -14 10 -142 10 -290 0 -288 -3 -310 -58 -367 -62 -66
-164 -87 -248 -52 l-39 16 29 -30 c31 -33 101 -61 150 -61 84 0 159 49 195
126 21 45 22 56 19 323 l-3 276 -29 43 c-33 48 -40 53 -26 16z"/>
<path d="M7307 4035 c5 -22 8 -443 8 -935 0 -993 4 -939 -68 -1017 -66 -71
-162 -87 -252 -41 l-40 20 20 -22 c50 -55 147 -89 218 -76 51 10 120 60 147
108 l25 43 3 904 c3 973 3 973 -48 1032 l-20 24 7 -40z"/>
<path d="M2067 3809 c10 -17 24 -36 32 -42 8 -7 2 7 -14 31 -32 49 -45 57 -18
11z"/>
<path d="M2135 3710 c20 -35 146 -220 150 -220 6 0 -132 209 -148 225 -7 7 -7
5 -2 -5z"/>
<path d="M2360 3371 c5 -11 15 -23 21 -27 6 -3 3 5 -6 20 -20 30 -30 35 -15 7z"/>
<path d="M4681 3200 c7 -14 13 -54 13 -90 1 -87 -33 -147 -107 -190 l-52 -30
-317 0 -317 0 -40 -47 c-40 -48 -214 -257 -739 -886 -254 -305 -278 -331 -329
-354 -46 -21 -65 -25 -110 -20 -30 3 -66 13 -80 22 -19 13 -24 13 -21 3 7 -20
103 -75 145 -81 46 -7 100 4 145 30 28 16 287 316 520 603 34 41 94 113 134
160 40 47 151 181 248 298 l177 212 302 0 c182 0 317 4 340 11 49 13 115 73
138 124 34 74 18 166 -41 235 l-21 25 12 -25z"/>
<path d="M1710 2915 c0 -13 86 -65 107 -65 12 0 23 2 23 4 0 2 3 11 6 20 5 13
-1 16 -32 16 -22 1 -50 7 -64 15 -26 15 -40 18 -40 10z"/>
<path d="M2378 2873 c-8 -10 -97 -141 -197 -292 -100 -150 -192 -282 -204
-292 -63 -53 -169 -69 -238 -36 l-34 17 37 -34 c81 -77 223 -73 298 8 14 15
109 152 211 304 l186 277 418 3 c414 2 419 2 442 24 13 12 23 25 23 30 0 4
-209 8 -463 8 -429 0 -465 -1 -479 -17z"/>
<path d="M5326 2842 c-18 -2 -49 -24 -87 -61 l-59 -57 0 -276 0 -275 49 -46
c90 -85 183 -83 253 6 l33 41 3 258 c3 249 3 260 -18 303 -13 28 -38 57 -63
74 -47 31 -69 38 -111 33z"/>
<path d="M5556 2750 c5 -14 9 -151 9 -305 l0 -280 -26 -40 c-38 -57 -70 -82
-130 -100 -60 -17 -107 -12 -159 17 l-35 20 29 -30 c98 -104 265 -89 345 32
l26 39 3 276 c3 296 -2 335 -50 377 -20 19 -21 19 -12 -6z"/>
<path d="M5540 1479 c0 -4 7 -23 15 -42 11 -26 15 -73 15 -161 0 -69 4 -127 9
-130 5 -4 16 -3 25 0 22 9 23 201 1 247 -16 33 -64 97 -65 86z"/>
<path d="M1491 1315 c15 -37 93 -165 100 -165 14 0 11 9 -22 64 -30 49 -87
122 -78 101z"/>
<path d="M7734 5375 c4 -11 12 -48 17 -83 9 -61 41 -142 57 -142 13 0 -9 122
-31 173 -21 48 -60 95 -43 52z"/>
<path d="M8176 4920 c12 -35 14 -312 12 -1828 l-3 -1787 -25 -45 c-36 -64
-102 -105 -180 -114 -84 -10 -133 -31 -171 -73 -37 -43 -48 -70 -60 -151 -15
-106 -60 -168 -144 -201 -23 -8 -785 -11 -3155 -9 -2973 3 -3127 4 -3153 21
-39 26 -33 4 8 -27 79 -60 -164 -56 3207 -56 2220 0 3101 3 3133 11 55 14 116
65 138 116 9 21 21 69 26 107 18 123 84 185 219 205 41 6 86 18 101 26 40 20
88 79 101 122 8 27 10 557 8 1828 l-3 1790 -22 41 c-12 22 -28 46 -36 53 -13
10 -13 7 -1 -29z"/>
<path d="M830 1180 c0 -13 60 -57 101 -73 18 -8 59 -18 89 -21 30 -4 70 -16
88 -26 32 -20 32 -20 22 0 -20 37 -82 69 -160 81 -41 6 -90 20 -107 30 -18 10
-33 14 -33 9z"/>
</g>
</svg>
