<?xml version="1.0" standalone="no"?>
<!DOCTYPE svg PUBLIC "-//W3C//DTD SVG 20010904//EN"
 "http://www.w3.org/TR/2001/REC-SVG-20010904/DTD/svg10.dtd">
<svg version="1.0" xmlns="http://www.w3.org/2000/svg"
 width="980.000000pt" height="981.000000pt" viewBox="0 0 980.000000 981.000000"
 preserveAspectRatio="xMidYMid meet">

<g transform="translate(0.000000,981.000000) scale(0.100000,-0.100000)"
fill="#000000" stroke="none">
<path d="M483 9801 l-373 -6 -41 -41 -41 -41 -10 -124 c-7 -81 -11 -969 -12
-2529 l-1 -2406 26 -49 c20 -41 33 -52 65 -63 49 -17 1050 -29 3015 -38 l1376
-6 7 -2067 c4 -1136 10 -2123 14 -2193 9 -152 20 -176 98 -196 102 -26 600
-32 2809 -32 l2261 0 62 63 63 64 -4 2439 c-4 2408 -7 2579 -37 2658 -18 49
-51 59 -209 68 -80 4 -1067 10 -2192 14 l-2047 7 -6 1166 c-9 1838 -25 3205
-37 3238 -12 37 -43 52 -134 65 -76 11 -3993 18 -4652 9z m4417 -2431 l0
-2040 -93 0 c-161 0 -246 -39 -293 -137 -26 -51 -29 -71 -33 -170 l-3 -113
-2039 0 -2039 0 1 1988 c1 1093 5 2102 8 2242 l6 255 270 5 c149 3 1158 7
2243 8 l1972 2 0 -2040z m4494 -4702 c-4 -1234 -7 -2244 -8 -2244 0 -1 -1010
-5 -2243 -9 l-2243 -7 0 2251 0 2251 2250 0 2251 0 -7 -2242z"/>
<path d="M2577 8976 c-51 -19 -76 -42 -101 -96 -20 -42 -21 -66 -26 -370 l-5
-325 -525 -6 c-619 -6 -612 -5 -666 -111 -34 -66 -35 -123 -2 -185 42 -83 98
-106 282 -119 52 -4 99 -10 105 -13 5 -4 28 -66 51 -139 94 -308 281 -662 533
-1010 128 -176 147 -204 147 -213 0 -21 -245 -290 -530 -584 -102 -104 -192
-205 -199 -222 -44 -108 70 -262 195 -263 73 0 144 58 494 411 l325 327 205
-216 c249 -262 473 -472 536 -503 43 -20 52 -21 103 -11 67 14 118 53 149 112
27 55 28 109 2 161 -11 21 -109 130 -218 242 -251 257 -371 384 -449 473 l-62
70 78 105 c308 412 540 844 628 1165 l28 101 110 6 c221 12 306 71 306 212 0
103 -62 174 -170 195 -32 6 -256 10 -552 10 l-499 0 0 348 0 348 -48 47 c-67
66 -140 83 -225 53z m648 -1248 c-19 -91 -124 -328 -211 -475 -81 -139 -265
-409 -318 -468 l-46 -50 -35 40 c-56 64 -184 249 -268 390 -132 219 -235 436
-274 578 -4 16 28 17 577 17 l582 0 -7 -32z"/>
<path d="M7067 4476 c-83 -31 -73 -9 -409 -896 -446 -1179 -819 -2189 -899
-2438 -40 -124 -41 -135 -29 -174 27 -91 120 -147 222 -133 115 16 147 77 384
729 l29 79 260 -7 c143 -3 494 -6 781 -6 l520 0 110 -291 c60 -160 129 -330
154 -378 39 -74 51 -89 90 -109 114 -59 276 24 287 146 4 41 -14 98 -145 457
-227 620 -493 1338 -762 2055 -273 727 -327 865 -348 898 -40 62 -167 97 -245
68z m110 -851 c40 -100 583 -1547 583 -1557 0 -13 -1206 -6 -1218 7 -7 6 96
292 284 790 162 429 297 790 300 803 9 35 24 22 51 -43z"/>
<path d="M5787 8941 c-72 -81 -84 -166 -34 -256 41 -74 75 -83 417 -115 722
-67 1364 -419 1833 -1005 218 -272 369 -569 478 -942 16 -58 28 -107 25 -110
-2 -2 -86 74 -185 171 -220 213 -275 257 -335 263 -115 13 -225 -86 -226 -203
0 -52 27 -90 205 -284 157 -172 575 -584 673 -664 58 -47 81 -59 117 -63 110
-13 142 19 481 472 314 419 354 481 354 551 0 44 -47 130 -87 161 -27 21 -49
28 -97 31 -100 6 -132 -22 -342 -293 -56 -72 -108 -136 -116 -143 -17 -14 -17
-15 -63 181 -188 786 -796 1553 -1545 1950 -425 225 -920 347 -1412 347 l-96
0 -45 -49z"/>
<path d="M979 4091 c-69 -22 -145 -106 -403 -451 -379 -504 -401 -546 -343
-659 34 -66 85 -103 150 -109 99 -8 155 39 356 301 63 81 118 144 122 140 5
-5 26 -80 48 -168 22 -88 53 -198 69 -245 269 -788 920 -1490 1687 -1821 155
-67 380 -140 525 -173 180 -39 307 -55 549 -68 l224 -12 40 44 c21 25 46 58
54 75 34 64 9 193 -45 235 -41 33 -116 48 -307 65 -403 34 -692 113 -1013 274
-528 265 -990 744 -1230 1275 -52 116 -116 297 -161 455 l-21 75 48 -45 c26
-25 110 -105 187 -180 181 -174 241 -220 300 -227 81 -9 163 41 201 122 42 90
30 135 -64 241 -194 219 -810 827 -857 845 -39 15 -89 19 -116 11z"/>
</g>
</svg>
